<svg width="19" height="8" viewBox="0 0 19 8" fill="none" xmlns="http://www.w3.org/2000/svg">
<path id="Vector" d="M7.418 8L5.92796 7.6748L6.55534 5.78862C5.61426 5.46341 4.75161 5.00813 4.0458 4.55285L2.3205 5.98374L1.22257 5.07317L2.86946 3.57724C1.92838 2.66667 1.301 1.49594 0.987305 0.260163L2.55577 0C3.18315 2.79675 6.0848 4.87805 9.53542 4.87805C12.986 4.87805 15.8877 2.79675 16.5151 0.0650406L18.0835 0.325203C17.8483 1.56098 17.1425 2.66667 16.2014 3.64228L17.9267 5.07317L16.8288 5.98374L15.025 4.55285C14.2408 5.07317 13.4566 5.46341 12.5155 5.78862L13.1429 7.6748L11.6528 8L11.0255 6.11382C10.5549 6.11382 10.006 6.17886 9.53542 6.17886C9.06488 6.17886 8.51592 6.11382 8.04538 6.04878L7.418 8Z" fill="#9FA8B6"/>
</svg>
