<svg width="178" height="73" viewBox="0 0 178 73" fill="none" xmlns="http://www.w3.org/2000/svg">
<g id="Logo">
<circle id="Ellipse 11" cx="173.87" cy="44" r="3" fill="#91C40C"/>
<g id="Business">
<path id="Vector" d="M166.345 34.6522L164.666 35.126C164.501 34.6522 164.268 34.2231 163.966 33.8387C163.664 33.4542 163.269 33.1487 162.782 32.9221C162.301 32.6956 161.704 32.5823 160.99 32.5823C159.919 32.5823 159.04 32.8363 158.353 33.3444C157.667 33.8524 157.323 34.5081 157.323 35.3113C157.323 35.991 157.557 36.5437 158.024 36.9694C158.497 37.3882 159.225 37.7211 160.207 37.9683L162.596 38.5553C163.921 38.878 164.913 39.3895 165.572 40.0897C166.238 40.79 166.571 41.6688 166.571 42.7261C166.571 43.6186 166.324 44.4116 165.83 45.105C165.336 45.7984 164.646 46.3442 163.76 46.7424C162.881 47.1338 161.862 47.3294 160.701 47.3294C159.157 47.3294 157.883 46.9827 156.881 46.2893C155.878 45.589 155.236 44.5798 154.955 43.2616L156.716 42.8291C156.942 43.7697 157.385 44.4803 158.044 44.9608C158.71 45.4414 159.586 45.6817 160.67 45.6817C161.886 45.6817 162.857 45.4105 163.585 44.8682C164.313 44.3189 164.676 43.6324 164.676 42.8085C164.676 42.17 164.464 41.6345 164.038 41.202C163.612 40.7626 162.967 40.4399 162.102 40.2339L159.517 39.616C158.144 39.2865 157.128 38.7647 156.469 38.0507C155.81 37.3367 155.48 36.451 155.48 35.3937C155.48 34.5218 155.717 33.7563 156.191 33.0972C156.664 32.4312 157.317 31.9095 158.147 31.5319C158.978 31.1543 159.925 30.9655 160.99 30.9655C162.438 30.9655 163.595 31.295 164.46 31.9541C165.332 32.6063 165.96 33.5057 166.345 34.6522Z" fill="#EEEFF2"/>
<path id="Vector_2" d="M153.217 34.6522L151.538 35.126C151.373 34.6522 151.14 34.2231 150.838 33.8387C150.536 33.4542 150.141 33.1487 149.653 32.9221C149.173 32.6956 148.575 32.5823 147.861 32.5823C146.79 32.5823 145.912 32.8363 145.225 33.3444C144.539 33.8524 144.195 34.5081 144.195 35.3113C144.195 35.991 144.429 36.5437 144.896 36.9694C145.369 37.3882 146.097 37.7211 147.079 37.9683L149.468 38.5553C150.793 38.878 151.785 39.3895 152.444 40.0897C153.11 40.79 153.443 41.6688 153.443 42.7261C153.443 43.6186 153.196 44.4116 152.702 45.105C152.207 45.7984 151.517 46.3442 150.632 46.7424C149.753 47.1338 148.733 47.3294 147.573 47.3294C146.028 47.3294 144.755 46.9827 143.752 46.2893C142.75 45.589 142.108 44.5798 141.827 43.2616L143.588 42.8291C143.814 43.7697 144.257 44.4803 144.916 44.9608C145.582 45.4414 146.457 45.6817 147.542 45.6817C148.757 45.6817 149.729 45.4105 150.457 44.8682C151.184 44.3189 151.548 43.6324 151.548 42.8085C151.548 42.17 151.335 41.6345 150.91 41.202C150.484 40.7626 149.839 40.4399 148.974 40.2339L146.389 39.616C145.016 39.2865 144 38.7647 143.341 38.0507C142.681 37.3367 142.352 36.451 142.352 35.3937C142.352 34.5218 142.589 33.7563 143.062 33.0972C143.536 32.4312 144.188 31.9095 145.019 31.5319C145.85 31.1543 146.797 30.9655 147.861 30.9655C149.31 30.9655 150.467 31.295 151.332 31.9541C152.204 32.6063 152.832 33.5057 153.217 34.6522Z" fill="#EEEFF2"/>
<path id="Vector_3" d="M133.873 47.3294C132.397 47.3294 131.12 46.9862 130.042 46.2996C128.965 45.6062 128.13 44.6485 127.54 43.4264C126.956 42.1975 126.665 40.7832 126.665 39.1835C126.665 37.5907 126.956 36.1764 127.54 34.9406C128.13 33.6979 128.944 32.7265 129.981 32.0262C131.024 31.319 132.229 30.9655 133.595 30.9655C134.454 30.9655 135.281 31.1234 136.077 31.4392C136.874 31.7481 137.588 32.2253 138.219 32.8706C138.858 33.5091 139.362 34.3158 139.733 35.2907C140.104 36.2588 140.289 37.4053 140.289 38.7304V39.6366H127.931V38.0198H138.415C138.415 37.0037 138.209 36.0906 137.797 35.2804C137.392 34.4634 136.826 33.8181 136.098 33.3444C135.377 32.8706 134.543 32.6338 133.595 32.6338C132.593 32.6338 131.711 32.9015 130.949 33.437C130.187 33.9726 129.589 34.6797 129.157 35.5585C128.731 36.4373 128.515 37.3985 128.508 38.442V39.4101C128.508 40.6664 128.724 41.7649 129.157 42.7055C129.596 43.6392 130.218 44.3635 131.021 44.8785C131.824 45.3934 132.775 45.6508 133.873 45.6508C134.622 45.6508 135.277 45.5341 135.84 45.3007C136.41 45.0673 136.887 44.7549 137.272 44.3635C137.663 43.9653 137.958 43.5294 138.158 43.0557L139.898 43.6221C139.658 44.288 139.263 44.9025 138.714 45.4655C138.171 46.0284 137.492 46.4816 136.675 46.8248C135.864 47.1612 134.931 47.3294 133.873 47.3294Z" fill="#EEEFF2"/>
<path id="Vector_4" d="M114.257 37.1136V47H112.424V31.1818H114.206V33.6637H114.371C114.741 32.8536 115.318 32.2048 116.101 31.7173C116.89 31.223 117.865 30.9758 119.025 30.9758C120.09 30.9758 121.023 31.199 121.827 31.6452C122.637 32.0846 123.265 32.7334 123.711 33.5916C124.164 34.4498 124.391 35.5036 124.391 36.7532V47H122.558V36.8665C122.558 35.5689 122.194 34.5425 121.466 33.7873C120.745 33.0321 119.777 32.6545 118.562 32.6545C117.731 32.6545 116.993 32.833 116.348 33.19C115.702 33.547 115.191 34.0619 114.813 34.7347C114.443 35.4007 114.257 36.1936 114.257 37.1136Z" fill="#EEEFF2"/>
<path id="Vector_5" d="M107.473 47V31.1818H109.316V47H107.473ZM108.41 28.463C108.032 28.463 107.71 28.336 107.442 28.082C107.174 27.8211 107.04 27.5087 107.04 27.1448C107.04 26.781 107.174 26.472 107.442 26.218C107.71 25.9571 108.032 25.8267 108.41 25.8267C108.788 25.8267 109.11 25.9571 109.378 26.218C109.646 26.472 109.78 26.781 109.78 27.1448C109.78 27.5087 109.646 27.8211 109.378 28.082C109.11 28.336 108.788 28.463 108.41 28.463Z" fill="#EEEFF2"/>
<path id="Vector_6" d="M104.952 34.6522L103.273 35.126C103.109 34.6522 102.875 34.2231 102.573 33.8387C102.271 33.4542 101.876 33.1487 101.389 32.9221C100.908 32.6956 100.311 32.5823 99.5969 32.5823C98.5259 32.5823 97.6471 32.8363 96.9605 33.3444C96.274 33.8524 95.9307 34.5081 95.9307 35.3113C95.9307 35.991 96.1641 36.5437 96.631 36.9694C97.1047 37.3882 97.8324 37.7211 98.8142 37.9683L101.203 38.5553C102.528 38.878 103.521 39.3895 104.18 40.0897C104.846 40.79 105.179 41.6688 105.179 42.7261C105.179 43.6186 104.931 44.4116 104.437 45.105C103.943 45.7984 103.253 46.3442 102.367 46.7424C101.488 47.1338 100.469 47.3294 99.3085 47.3294C97.7638 47.3294 96.4902 46.9827 95.4879 46.2893C94.4855 45.589 93.8436 44.5798 93.5621 43.2616L95.3231 42.8291C95.5496 43.7697 95.9925 44.4803 96.6516 44.9608C97.3175 45.4414 98.1929 45.6817 99.2776 45.6817C100.493 45.6817 101.464 45.4105 102.192 44.8682C102.92 44.3189 103.284 43.6324 103.284 42.8085C103.284 42.17 103.071 41.6345 102.645 41.202C102.22 40.7626 101.574 40.4399 100.709 40.2339L98.1242 39.616C96.7511 39.2865 95.735 38.7647 95.0759 38.0507C94.4168 37.3367 94.0873 36.451 94.0873 35.3937C94.0873 34.5218 94.3241 33.7563 94.7979 33.0972C95.2716 32.4312 95.9238 31.9095 96.7545 31.5319C97.5853 31.1543 98.5327 30.9655 99.5969 30.9655C101.046 30.9655 102.202 31.295 103.067 31.9541C103.939 32.6063 104.568 33.5057 104.952 34.6522Z" fill="#EEEFF2"/>
<path id="Vector_7" d="M89.378 40.9548V31.1818H91.2111V46.9999H89.378V44.3739H89.2338C88.8631 45.184 88.2761 45.8603 87.4728 46.4026C86.6695 46.9382 85.6878 47.2059 84.5275 47.2059C83.5182 47.2059 82.6223 46.9862 81.8396 46.5468C81.057 46.1006 80.4425 45.4483 79.9962 44.5901C79.55 43.732 79.3268 42.6781 79.3268 41.4286V31.1818H81.1599V41.3153C81.1599 42.5511 81.5238 43.5466 82.2516 44.3018C82.9793 45.0501 83.913 45.4243 85.0527 45.4243C85.7667 45.4243 86.4533 45.2527 87.1124 44.9094C87.7714 44.5661 88.3138 44.0649 88.7395 43.4058C89.1651 42.7399 89.378 41.9229 89.378 40.9548Z" fill="#EEEFF2"/>
<path id="Vector_8" d="M62.6715 47V25.9091H69.7876C71.1607 25.9091 72.3038 26.1494 73.217 26.6299C74.1369 27.1105 74.8269 27.7662 75.2869 28.5969C75.7469 29.4276 75.9769 30.3717 75.9769 31.4289C75.9769 32.3077 75.8293 33.0595 75.5341 33.6843C75.2389 34.309 74.8372 34.8137 74.3292 35.1981C73.8211 35.5826 73.2547 35.8606 72.63 36.0323V36.1971C73.3096 36.2451 73.9687 36.4854 74.6072 36.9179C75.2457 37.3436 75.7709 37.9409 76.1829 38.7098C76.5948 39.4788 76.8008 40.3988 76.8008 41.4698C76.8008 42.5339 76.5639 43.4848 76.0902 44.3224C75.6165 45.1531 74.8887 45.8088 73.9069 46.2894C72.932 46.7631 71.6894 47 70.179 47H62.6715ZM64.5973 45.2699H70.179C71.8061 45.2699 73.0076 44.9094 73.7834 44.1885C74.566 43.4677 74.9574 42.5614 74.9574 41.4698C74.9574 40.6665 74.7617 39.9388 74.3704 39.2865C73.9859 38.6275 73.4401 38.1057 72.7329 37.7212C72.0327 37.3367 71.2088 37.1445 70.2614 37.1445H64.5973V45.2699ZM64.5973 35.435H69.9627C70.7934 35.435 71.5212 35.2633 72.1459 34.9201C72.7707 34.5768 73.2582 34.1031 73.6083 33.4989C73.9584 32.8947 74.1335 32.2047 74.1335 31.4289C74.1335 30.3099 73.7696 29.4002 73.0419 28.6999C72.3141 27.9927 71.2294 27.6392 69.7876 27.6392H64.5973V35.435Z" fill="#EEEFF2"/>
</g>
<g id="my">
<path id="Vector_9" d="M30.0705 52.9318C29.4182 52.9318 28.7969 52.8803 28.2065 52.7773C27.616 52.6812 27.0977 52.5473 26.6514 52.3757L27.8872 48.3387C28.3541 48.5035 28.7797 48.6099 29.1642 48.658C29.5556 48.706 29.8885 48.6786 30.1632 48.5756C30.4446 48.4726 30.6472 48.2769 30.7708 47.9886L30.8943 47.7002L25.3333 31.1818H31.2651L33.819 42.1391H33.9838L36.579 31.1818H42.552L36.785 48.3181C36.4966 49.19 36.0778 49.9727 35.5286 50.6661C34.9862 51.3664 34.2722 51.9191 33.3865 52.3242C32.5009 52.7292 31.3955 52.9318 30.0705 52.9318Z" fill="#EEEFF2"/>
<path id="Vector_10" d="M1.64417 47V31.1818H7.04047V34.1889H7.20524C7.53479 33.2003 8.09776 32.4176 8.89416 31.8409C9.69057 31.2642 10.638 30.9758 11.7365 30.9758C12.8487 30.9758 13.8065 31.271 14.6097 31.8615C15.413 32.4451 15.897 33.2209 16.0618 34.1889H16.2266C16.4943 33.2209 17.0641 32.4451 17.9361 31.8615C18.808 31.271 19.831 30.9758 21.005 30.9758C22.5222 30.9758 23.7512 31.4633 24.6918 32.4382C25.6392 33.4131 26.1129 34.7107 26.1129 36.3309V47H20.4283V37.7727C20.4283 37.0793 20.2532 36.5369 19.903 36.1456C19.5529 35.7474 19.0826 35.5483 18.4922 35.5483C17.9086 35.5483 17.4452 35.7474 17.1019 36.1456C16.7655 36.5369 16.5973 37.0793 16.5973 37.7727V47H11.1598V37.7727C11.1598 37.0793 10.9847 36.5369 10.6346 36.1456C10.2844 35.7474 9.81415 35.5483 9.22371 35.5483C8.83238 35.5483 8.49596 35.6375 8.21448 35.816C7.93299 35.9945 7.71329 36.252 7.55539 36.5884C7.40435 36.9179 7.32882 37.3127 7.32882 37.7727V47H1.64417Z" fill="#EEEFF2"/>
</g>
<line id="Line 60" x1="50.8704" y1="3" x2="50.8704" y2="71" stroke="#9FA8B6" stroke-width="2"/>
</g>
</svg>
